<mxfile host="Electron" agent="Mozilla/5.0 (Windows NT 10.0; Win64; x64) AppleWebKit/537.36 (KHTML, like Gecko) draw.io/24.7.8 Chrome/128.0.6613.36 Electron/32.0.1 Safari/537.36" version="24.7.8">
  <diagram id="C5RBs43oDa-KdzZeNtuy" name="Page-1">
    <mxGraphModel dx="568" dy="613" grid="1" gridSize="10" guides="1" tooltips="1" connect="1" arrows="1" fold="1" page="1" pageScale="1" pageWidth="827" pageHeight="1169" math="0" shadow="0">
      <root>
        <mxCell id="WIyWlLk6GJQsqaUBKTNV-0" />
        <mxCell id="WIyWlLk6GJQsqaUBKTNV-1" parent="WIyWlLk6GJQsqaUBKTNV-0" />
        <mxCell id="bKINpWK6c5jjok0U8FU8-1" style="edgeStyle=orthogonalEdgeStyle;rounded=0;orthogonalLoop=1;jettySize=auto;html=1;exitX=0.5;exitY=1;exitDx=0;exitDy=0;" parent="WIyWlLk6GJQsqaUBKTNV-1" source="bKINpWK6c5jjok0U8FU8-0" edge="1">
          <mxGeometry relative="1" as="geometry">
            <mxPoint x="230" y="140" as="targetPoint" />
          </mxGeometry>
        </mxCell>
        <mxCell id="bKINpWK6c5jjok0U8FU8-0" value="START" style="ellipse;whiteSpace=wrap;html=1;" parent="WIyWlLk6GJQsqaUBKTNV-1" vertex="1">
          <mxGeometry x="170" y="20" width="120" height="80" as="geometry" />
        </mxCell>
        <mxCell id="bKINpWK6c5jjok0U8FU8-3" style="edgeStyle=orthogonalEdgeStyle;rounded=0;orthogonalLoop=1;jettySize=auto;html=1;" parent="WIyWlLk6GJQsqaUBKTNV-1" source="bKINpWK6c5jjok0U8FU8-2" edge="1">
          <mxGeometry relative="1" as="geometry">
            <mxPoint x="230" y="260" as="targetPoint" />
          </mxGeometry>
        </mxCell>
        <mxCell id="bKINpWK6c5jjok0U8FU8-2" value="Deal 2 cards each to computer and player.&amp;nbsp;&lt;br&gt;1st computer card, and entire player hand are visible." style="rounded=0;whiteSpace=wrap;html=1;" parent="WIyWlLk6GJQsqaUBKTNV-1" vertex="1">
          <mxGeometry x="160" y="140" width="140" height="80" as="geometry" />
        </mxCell>
        <mxCell id="bKINpWK6c5jjok0U8FU8-5" style="edgeStyle=orthogonalEdgeStyle;rounded=0;orthogonalLoop=1;jettySize=auto;html=1;exitX=0.5;exitY=1;exitDx=0;exitDy=0;" parent="WIyWlLk6GJQsqaUBKTNV-1" source="bKINpWK6c5jjok0U8FU8-4" edge="1">
          <mxGeometry relative="1" as="geometry">
            <mxPoint x="230" y="350" as="targetPoint" />
          </mxGeometry>
        </mxCell>
        <mxCell id="bKINpWK6c5jjok0U8FU8-4" value="Calculate Score" style="rounded=0;whiteSpace=wrap;html=1;" parent="WIyWlLk6GJQsqaUBKTNV-1" vertex="1">
          <mxGeometry x="170" y="260" width="120" height="60" as="geometry" />
        </mxCell>
        <mxCell id="bKINpWK6c5jjok0U8FU8-9" style="edgeStyle=orthogonalEdgeStyle;rounded=0;orthogonalLoop=1;jettySize=auto;html=1;entryX=0;entryY=0.5;entryDx=0;entryDy=0;" parent="WIyWlLk6GJQsqaUBKTNV-1" source="bKINpWK6c5jjok0U8FU8-7" target="bKINpWK6c5jjok0U8FU8-14" edge="1">
          <mxGeometry relative="1" as="geometry">
            <mxPoint x="380" y="415" as="targetPoint" />
            <Array as="points">
              <mxPoint x="370" y="405" />
              <mxPoint x="370" y="405" />
            </Array>
          </mxGeometry>
        </mxCell>
        <mxCell id="bKINpWK6c5jjok0U8FU8-23" value="YES" style="edgeLabel;html=1;align=center;verticalAlign=middle;resizable=0;points=[];" parent="bKINpWK6c5jjok0U8FU8-9" vertex="1" connectable="0">
          <mxGeometry x="-0.0984" y="1" relative="1" as="geometry">
            <mxPoint as="offset" />
          </mxGeometry>
        </mxCell>
        <mxCell id="bKINpWK6c5jjok0U8FU8-10" style="edgeStyle=orthogonalEdgeStyle;rounded=0;orthogonalLoop=1;jettySize=auto;html=1;exitX=0.5;exitY=1;exitDx=0;exitDy=0;entryX=0.5;entryY=0;entryDx=0;entryDy=0;" parent="WIyWlLk6GJQsqaUBKTNV-1" source="bKINpWK6c5jjok0U8FU8-7" target="bKINpWK6c5jjok0U8FU8-19" edge="1">
          <mxGeometry relative="1" as="geometry">
            <mxPoint x="230" y="510" as="targetPoint" />
          </mxGeometry>
        </mxCell>
        <mxCell id="bKINpWK6c5jjok0U8FU8-18" value="NO" style="edgeLabel;html=1;align=center;verticalAlign=middle;resizable=0;points=[];" parent="bKINpWK6c5jjok0U8FU8-10" vertex="1" connectable="0">
          <mxGeometry x="-0.6833" y="-3" relative="1" as="geometry">
            <mxPoint x="3" y="14" as="offset" />
          </mxGeometry>
        </mxCell>
        <mxCell id="bKINpWK6c5jjok0U8FU8-7" value="&lt;div&gt;&lt;span style=&quot;background-color: initial;&quot;&gt;&lt;br&gt;&lt;/span&gt;&lt;/div&gt;&lt;div&gt;&lt;span style=&quot;background-color: initial;&quot;&gt;Does computer&lt;/span&gt;&lt;/div&gt;&lt;div&gt;&lt;span style=&quot;background-color: initial;&quot;&gt;have blackjack?&lt;/span&gt;&lt;/div&gt;&lt;div&gt;(21)&lt;/div&gt;" style="rhombus;whiteSpace=wrap;html=1;" parent="WIyWlLk6GJQsqaUBKTNV-1" vertex="1">
          <mxGeometry x="170" y="350" width="120" height="110" as="geometry" />
        </mxCell>
        <mxCell id="bKINpWK6c5jjok0U8FU8-14" value="Computer Wins.&lt;div&gt;Game Over.&lt;/div&gt;" style="ellipse;whiteSpace=wrap;html=1;" parent="WIyWlLk6GJQsqaUBKTNV-1" vertex="1">
          <mxGeometry x="380" y="365" width="120" height="80" as="geometry" />
        </mxCell>
        <mxCell id="bKINpWK6c5jjok0U8FU8-26" style="edgeStyle=orthogonalEdgeStyle;rounded=0;orthogonalLoop=1;jettySize=auto;html=1;entryX=0.5;entryY=0;entryDx=0;entryDy=0;" parent="WIyWlLk6GJQsqaUBKTNV-1" source="bKINpWK6c5jjok0U8FU8-19" edge="1">
          <mxGeometry relative="1" as="geometry">
            <mxPoint x="230" y="690" as="targetPoint" />
          </mxGeometry>
        </mxCell>
        <mxCell id="bKINpWK6c5jjok0U8FU8-27" value="NO" style="edgeLabel;html=1;align=center;verticalAlign=middle;resizable=0;points=[];" parent="bKINpWK6c5jjok0U8FU8-26" vertex="1" connectable="0">
          <mxGeometry x="-0.05" y="-1" relative="1" as="geometry">
            <mxPoint as="offset" />
          </mxGeometry>
        </mxCell>
        <mxCell id="bKINpWK6c5jjok0U8FU8-19" value="&lt;div&gt;&lt;span style=&quot;background-color: initial;&quot;&gt;&lt;br&gt;&lt;/span&gt;&lt;/div&gt;&lt;div&gt;&lt;span style=&quot;background-color: initial;&quot;&gt;Does player&lt;/span&gt;&lt;/div&gt;&lt;div&gt;&lt;span style=&quot;background-color: initial;&quot;&gt;have blackjack?&lt;/span&gt;&lt;/div&gt;&lt;div&gt;(21)&lt;/div&gt;" style="rhombus;whiteSpace=wrap;html=1;" parent="WIyWlLk6GJQsqaUBKTNV-1" vertex="1">
          <mxGeometry x="170" y="520" width="120" height="110" as="geometry" />
        </mxCell>
        <mxCell id="bKINpWK6c5jjok0U8FU8-20" style="edgeStyle=orthogonalEdgeStyle;rounded=0;orthogonalLoop=1;jettySize=auto;html=1;" parent="WIyWlLk6GJQsqaUBKTNV-1" edge="1">
          <mxGeometry relative="1" as="geometry">
            <mxPoint x="380" y="574.5" as="targetPoint" />
            <mxPoint x="290" y="574.5" as="sourcePoint" />
          </mxGeometry>
        </mxCell>
        <mxCell id="bKINpWK6c5jjok0U8FU8-24" value="YES" style="edgeLabel;html=1;align=center;verticalAlign=middle;resizable=0;points=[];" parent="bKINpWK6c5jjok0U8FU8-20" vertex="1" connectable="0">
          <mxGeometry x="-0.1156" y="-1" relative="1" as="geometry">
            <mxPoint y="1" as="offset" />
          </mxGeometry>
        </mxCell>
        <mxCell id="bKINpWK6c5jjok0U8FU8-22" value="Player Wins.&lt;div&gt;Game Over.&lt;/div&gt;" style="ellipse;whiteSpace=wrap;html=1;" parent="WIyWlLk6GJQsqaUBKTNV-1" vertex="1">
          <mxGeometry x="380" y="535" width="120" height="80" as="geometry" />
        </mxCell>
        <mxCell id="0GbLjjnctqittR8Gsj8x-1" style="edgeStyle=orthogonalEdgeStyle;rounded=0;orthogonalLoop=1;jettySize=auto;html=1;" parent="WIyWlLk6GJQsqaUBKTNV-1" source="0GbLjjnctqittR8Gsj8x-0" edge="1">
          <mxGeometry relative="1" as="geometry">
            <mxPoint x="380" y="730" as="targetPoint" />
          </mxGeometry>
        </mxCell>
        <mxCell id="0GbLjjnctqittR8Gsj8x-2" value="YES" style="edgeLabel;html=1;align=center;verticalAlign=middle;resizable=0;points=[];" parent="0GbLjjnctqittR8Gsj8x-1" vertex="1" connectable="0">
          <mxGeometry x="0.1198" y="-3" relative="1" as="geometry">
            <mxPoint x="-12" y="-3" as="offset" />
          </mxGeometry>
        </mxCell>
        <mxCell id="0GbLjjnctqittR8Gsj8x-10" style="edgeStyle=orthogonalEdgeStyle;rounded=0;orthogonalLoop=1;jettySize=auto;html=1;exitX=0;exitY=0.5;exitDx=0;exitDy=0;" parent="WIyWlLk6GJQsqaUBKTNV-1" source="0GbLjjnctqittR8Gsj8x-0" target="0GbLjjnctqittR8Gsj8x-12" edge="1">
          <mxGeometry relative="1" as="geometry">
            <mxPoint x="140" y="940" as="targetPoint" />
          </mxGeometry>
        </mxCell>
        <mxCell id="0GbLjjnctqittR8Gsj8x-11" value="NO" style="edgeLabel;html=1;align=center;verticalAlign=middle;resizable=0;points=[];" parent="0GbLjjnctqittR8Gsj8x-10" vertex="1" connectable="0">
          <mxGeometry x="-0.8027" y="2" relative="1" as="geometry">
            <mxPoint x="-4" y="-2" as="offset" />
          </mxGeometry>
        </mxCell>
        <mxCell id="0GbLjjnctqittR8Gsj8x-0" value="Player&lt;div&gt;Bust?&lt;/div&gt;" style="rhombus;whiteSpace=wrap;html=1;" parent="WIyWlLk6GJQsqaUBKTNV-1" vertex="1">
          <mxGeometry x="190" y="690" width="80" height="80" as="geometry" />
        </mxCell>
        <mxCell id="0GbLjjnctqittR8Gsj8x-4" style="edgeStyle=orthogonalEdgeStyle;rounded=0;orthogonalLoop=1;jettySize=auto;html=1;" parent="WIyWlLk6GJQsqaUBKTNV-1" source="0GbLjjnctqittR8Gsj8x-3" edge="1">
          <mxGeometry relative="1" as="geometry">
            <mxPoint x="560" y="730" as="targetPoint" />
          </mxGeometry>
        </mxCell>
        <mxCell id="zXSyF-BzobU6LkQ8Iv29-0" value="NO" style="edgeLabel;html=1;align=center;verticalAlign=middle;resizable=0;points=[];" parent="0GbLjjnctqittR8Gsj8x-4" vertex="1" connectable="0">
          <mxGeometry x="-0.1085" y="-1" relative="1" as="geometry">
            <mxPoint as="offset" />
          </mxGeometry>
        </mxCell>
        <mxCell id="0GbLjjnctqittR8Gsj8x-6" style="edgeStyle=orthogonalEdgeStyle;rounded=0;orthogonalLoop=1;jettySize=auto;html=1;exitX=0.5;exitY=1;exitDx=0;exitDy=0;" parent="WIyWlLk6GJQsqaUBKTNV-1" source="0GbLjjnctqittR8Gsj8x-3" edge="1">
          <mxGeometry relative="1" as="geometry">
            <mxPoint x="420" y="840" as="targetPoint" />
          </mxGeometry>
        </mxCell>
        <mxCell id="zXSyF-BzobU6LkQ8Iv29-1" value="YES" style="edgeLabel;html=1;align=center;verticalAlign=middle;resizable=0;points=[];" parent="0GbLjjnctqittR8Gsj8x-6" vertex="1" connectable="0">
          <mxGeometry x="-0.0639" y="3" relative="1" as="geometry">
            <mxPoint x="-3" as="offset" />
          </mxGeometry>
        </mxCell>
        <mxCell id="0GbLjjnctqittR8Gsj8x-3" value="11 in hand?" style="rhombus;whiteSpace=wrap;html=1;" parent="WIyWlLk6GJQsqaUBKTNV-1" vertex="1">
          <mxGeometry x="380" y="690" width="80" height="80" as="geometry" />
        </mxCell>
        <mxCell id="0GbLjjnctqittR8Gsj8x-5" value="Computer Wins.&lt;div&gt;Game Over.&lt;/div&gt;" style="ellipse;whiteSpace=wrap;html=1;" parent="WIyWlLk6GJQsqaUBKTNV-1" vertex="1">
          <mxGeometry x="560" y="690" width="120" height="80" as="geometry" />
        </mxCell>
        <mxCell id="0GbLjjnctqittR8Gsj8x-8" style="edgeStyle=orthogonalEdgeStyle;rounded=0;orthogonalLoop=1;jettySize=auto;html=1;exitX=0;exitY=0.5;exitDx=0;exitDy=0;entryX=1;entryY=1;entryDx=0;entryDy=0;" parent="WIyWlLk6GJQsqaUBKTNV-1" source="0GbLjjnctqittR8Gsj8x-7" target="0GbLjjnctqittR8Gsj8x-0" edge="1">
          <mxGeometry relative="1" as="geometry">
            <mxPoint x="250" y="780" as="targetPoint" />
            <Array as="points">
              <mxPoint x="250" y="870" />
            </Array>
          </mxGeometry>
        </mxCell>
        <mxCell id="0GbLjjnctqittR8Gsj8x-7" value="Replace 1st instance of value&amp;nbsp;&lt;div&gt;&lt;span style=&quot;background-color: initial;&quot;&gt;11 with value 1&lt;/span&gt;&lt;/div&gt;" style="rounded=0;whiteSpace=wrap;html=1;" parent="WIyWlLk6GJQsqaUBKTNV-1" vertex="1">
          <mxGeometry x="360" y="840" width="120" height="60" as="geometry" />
        </mxCell>
        <mxCell id="zXSyF-BzobU6LkQ8Iv29-2" style="edgeStyle=orthogonalEdgeStyle;rounded=0;orthogonalLoop=1;jettySize=auto;html=1;entryX=0;entryY=0.5;entryDx=0;entryDy=0;" parent="WIyWlLk6GJQsqaUBKTNV-1" source="0GbLjjnctqittR8Gsj8x-12" target="bKINpWK6c5jjok0U8FU8-4" edge="1">
          <mxGeometry relative="1" as="geometry">
            <Array as="points">
              <mxPoint x="40" y="980" />
              <mxPoint x="40" y="290" />
            </Array>
          </mxGeometry>
        </mxCell>
        <mxCell id="zXSyF-BzobU6LkQ8Iv29-3" value="HIT" style="edgeLabel;html=1;align=center;verticalAlign=middle;resizable=0;points=[];" parent="zXSyF-BzobU6LkQ8Iv29-2" vertex="1" connectable="0">
          <mxGeometry x="-0.6852" y="-1" relative="1" as="geometry">
            <mxPoint x="-1" y="-1" as="offset" />
          </mxGeometry>
        </mxCell>
        <mxCell id="zXSyF-BzobU6LkQ8Iv29-5" style="edgeStyle=orthogonalEdgeStyle;rounded=0;orthogonalLoop=1;jettySize=auto;html=1;exitX=0.5;exitY=1;exitDx=0;exitDy=0;" parent="WIyWlLk6GJQsqaUBKTNV-1" source="0GbLjjnctqittR8Gsj8x-12" edge="1">
          <mxGeometry relative="1" as="geometry">
            <mxPoint x="130" y="1100" as="targetPoint" />
          </mxGeometry>
        </mxCell>
        <mxCell id="zXSyF-BzobU6LkQ8Iv29-6" value="STAY" style="edgeLabel;html=1;align=center;verticalAlign=middle;resizable=0;points=[];" parent="zXSyF-BzobU6LkQ8Iv29-5" vertex="1" connectable="0">
          <mxGeometry x="-0.0311" y="-2" relative="1" as="geometry">
            <mxPoint as="offset" />
          </mxGeometry>
        </mxCell>
        <mxCell id="0GbLjjnctqittR8Gsj8x-12" value="Player HIT&lt;div&gt;or STAY&lt;/div&gt;" style="rhombus;whiteSpace=wrap;html=1;" parent="WIyWlLk6GJQsqaUBKTNV-1" vertex="1">
          <mxGeometry x="90" y="940" width="80" height="80" as="geometry" />
        </mxCell>
        <mxCell id="zXSyF-BzobU6LkQ8Iv29-10" style="edgeStyle=orthogonalEdgeStyle;rounded=0;orthogonalLoop=1;jettySize=auto;html=1;exitX=0.5;exitY=1;exitDx=0;exitDy=0;" parent="WIyWlLk6GJQsqaUBKTNV-1" edge="1">
          <mxGeometry relative="1" as="geometry">
            <mxPoint x="129.5" y="1250" as="targetPoint" />
            <mxPoint x="129.5" y="1160" as="sourcePoint" />
          </mxGeometry>
        </mxCell>
        <mxCell id="zXSyF-BzobU6LkQ8Iv29-11" value="Computer hand visible; draws cards until score &amp;gt; 17" style="rounded=0;whiteSpace=wrap;html=1;" parent="WIyWlLk6GJQsqaUBKTNV-1" vertex="1">
          <mxGeometry x="70" y="1100" width="120" height="60" as="geometry" />
        </mxCell>
        <mxCell id="zXSyF-BzobU6LkQ8Iv29-13" style="edgeStyle=orthogonalEdgeStyle;rounded=0;orthogonalLoop=1;jettySize=auto;html=1;exitX=1;exitY=0.5;exitDx=0;exitDy=0;" parent="WIyWlLk6GJQsqaUBKTNV-1" source="zXSyF-BzobU6LkQ8Iv29-12" edge="1">
          <mxGeometry relative="1" as="geometry">
            <mxPoint x="320" y="1290" as="targetPoint" />
          </mxGeometry>
        </mxCell>
        <mxCell id="zXSyF-BzobU6LkQ8Iv29-14" value="YES" style="edgeLabel;html=1;align=center;verticalAlign=middle;resizable=0;points=[];" parent="zXSyF-BzobU6LkQ8Iv29-13" vertex="1" connectable="0">
          <mxGeometry x="-0.006" y="1" relative="1" as="geometry">
            <mxPoint x="-1" y="-1" as="offset" />
          </mxGeometry>
        </mxCell>
        <mxCell id="zXSyF-BzobU6LkQ8Iv29-15" style="edgeStyle=orthogonalEdgeStyle;rounded=0;orthogonalLoop=1;jettySize=auto;html=1;exitX=0.5;exitY=1;exitDx=0;exitDy=0;" parent="WIyWlLk6GJQsqaUBKTNV-1" source="zXSyF-BzobU6LkQ8Iv29-12" target="zXSyF-BzobU6LkQ8Iv29-37" edge="1">
          <mxGeometry relative="1" as="geometry">
            <mxPoint x="130" y="1430" as="targetPoint" />
          </mxGeometry>
        </mxCell>
        <mxCell id="zXSyF-BzobU6LkQ8Iv29-16" value="NO" style="edgeLabel;html=1;align=center;verticalAlign=middle;resizable=0;points=[];" parent="zXSyF-BzobU6LkQ8Iv29-15" vertex="1" connectable="0">
          <mxGeometry x="-0.0249" y="-2" relative="1" as="geometry">
            <mxPoint as="offset" />
          </mxGeometry>
        </mxCell>
        <mxCell id="zXSyF-BzobU6LkQ8Iv29-12" value="Computer&lt;br&gt;Bust?" style="rhombus;whiteSpace=wrap;html=1;" parent="WIyWlLk6GJQsqaUBKTNV-1" vertex="1">
          <mxGeometry x="90" y="1250" width="80" height="80" as="geometry" />
        </mxCell>
        <mxCell id="zXSyF-BzobU6LkQ8Iv29-19" style="edgeStyle=orthogonalEdgeStyle;rounded=0;orthogonalLoop=1;jettySize=auto;html=1;" parent="WIyWlLk6GJQsqaUBKTNV-1" source="zXSyF-BzobU6LkQ8Iv29-23" edge="1">
          <mxGeometry relative="1" as="geometry">
            <mxPoint x="470" y="1290" as="targetPoint" />
          </mxGeometry>
        </mxCell>
        <mxCell id="zXSyF-BzobU6LkQ8Iv29-20" value="NO" style="edgeLabel;html=1;align=center;verticalAlign=middle;resizable=0;points=[];" parent="zXSyF-BzobU6LkQ8Iv29-19" vertex="1" connectable="0">
          <mxGeometry x="-0.1085" y="-1" relative="1" as="geometry">
            <mxPoint as="offset" />
          </mxGeometry>
        </mxCell>
        <mxCell id="zXSyF-BzobU6LkQ8Iv29-21" style="edgeStyle=orthogonalEdgeStyle;rounded=0;orthogonalLoop=1;jettySize=auto;html=1;exitX=0.5;exitY=1;exitDx=0;exitDy=0;" parent="WIyWlLk6GJQsqaUBKTNV-1" source="zXSyF-BzobU6LkQ8Iv29-23" edge="1">
          <mxGeometry relative="1" as="geometry">
            <mxPoint x="330" y="1400" as="targetPoint" />
          </mxGeometry>
        </mxCell>
        <mxCell id="zXSyF-BzobU6LkQ8Iv29-22" value="YES" style="edgeLabel;html=1;align=center;verticalAlign=middle;resizable=0;points=[];" parent="zXSyF-BzobU6LkQ8Iv29-21" vertex="1" connectable="0">
          <mxGeometry x="-0.0639" y="3" relative="1" as="geometry">
            <mxPoint x="-3" as="offset" />
          </mxGeometry>
        </mxCell>
        <mxCell id="zXSyF-BzobU6LkQ8Iv29-23" value="11 in hand?" style="rhombus;whiteSpace=wrap;html=1;" parent="WIyWlLk6GJQsqaUBKTNV-1" vertex="1">
          <mxGeometry x="290" y="1250" width="80" height="80" as="geometry" />
        </mxCell>
        <mxCell id="zXSyF-BzobU6LkQ8Iv29-24" value="Player Wins.&lt;div&gt;Game Over.&lt;/div&gt;" style="ellipse;whiteSpace=wrap;html=1;" parent="WIyWlLk6GJQsqaUBKTNV-1" vertex="1">
          <mxGeometry x="470" y="1250" width="120" height="80" as="geometry" />
        </mxCell>
        <mxCell id="zXSyF-BzobU6LkQ8Iv29-25" style="edgeStyle=orthogonalEdgeStyle;rounded=0;orthogonalLoop=1;jettySize=auto;html=1;exitX=0;exitY=0.5;exitDx=0;exitDy=0;entryX=1;entryY=1;entryDx=0;entryDy=0;" parent="WIyWlLk6GJQsqaUBKTNV-1" source="zXSyF-BzobU6LkQ8Iv29-26" target="zXSyF-BzobU6LkQ8Iv29-12" edge="1">
          <mxGeometry relative="1" as="geometry">
            <mxPoint x="160" y="1310" as="targetPoint" />
            <Array as="points">
              <mxPoint x="210" y="1430" />
              <mxPoint x="210" y="1310" />
            </Array>
          </mxGeometry>
        </mxCell>
        <mxCell id="zXSyF-BzobU6LkQ8Iv29-26" value="Replace 1st instance of value&amp;nbsp;&lt;div&gt;&lt;span style=&quot;background-color: initial;&quot;&gt;11 with value 1&lt;/span&gt;&lt;/div&gt;" style="rounded=0;whiteSpace=wrap;html=1;" parent="WIyWlLk6GJQsqaUBKTNV-1" vertex="1">
          <mxGeometry x="270" y="1400" width="120" height="60" as="geometry" />
        </mxCell>
        <mxCell id="zXSyF-BzobU6LkQ8Iv29-38" style="edgeStyle=orthogonalEdgeStyle;rounded=0;orthogonalLoop=1;jettySize=auto;html=1;" parent="WIyWlLk6GJQsqaUBKTNV-1" source="zXSyF-BzobU6LkQ8Iv29-37" target="zXSyF-BzobU6LkQ8Iv29-44" edge="1">
          <mxGeometry relative="1" as="geometry">
            <mxPoint x="40" y="1570" as="targetPoint" />
          </mxGeometry>
        </mxCell>
        <mxCell id="zXSyF-BzobU6LkQ8Iv29-39" style="edgeStyle=orthogonalEdgeStyle;rounded=0;orthogonalLoop=1;jettySize=auto;html=1;exitX=0.5;exitY=1;exitDx=0;exitDy=0;" parent="WIyWlLk6GJQsqaUBKTNV-1" source="zXSyF-BzobU6LkQ8Iv29-37" edge="1">
          <mxGeometry relative="1" as="geometry">
            <mxPoint x="190" y="1700" as="targetPoint" />
          </mxGeometry>
        </mxCell>
        <mxCell id="zXSyF-BzobU6LkQ8Iv29-40" style="edgeStyle=orthogonalEdgeStyle;rounded=0;orthogonalLoop=1;jettySize=auto;html=1;exitX=1;exitY=0.5;exitDx=0;exitDy=0;" parent="WIyWlLk6GJQsqaUBKTNV-1" source="zXSyF-BzobU6LkQ8Iv29-37" target="zXSyF-BzobU6LkQ8Iv29-41" edge="1">
          <mxGeometry relative="1" as="geometry">
            <mxPoint x="350" y="1570" as="targetPoint" />
          </mxGeometry>
        </mxCell>
        <mxCell id="zXSyF-BzobU6LkQ8Iv29-37" value="Compare Scores;&lt;div&gt;winner = highest score&lt;/div&gt;" style="ellipse;whiteSpace=wrap;html=1;" parent="WIyWlLk6GJQsqaUBKTNV-1" vertex="1">
          <mxGeometry x="130" y="1530" width="120" height="80" as="geometry" />
        </mxCell>
        <mxCell id="zXSyF-BzobU6LkQ8Iv29-41" value="Player Wins" style="ellipse;whiteSpace=wrap;html=1;" parent="WIyWlLk6GJQsqaUBKTNV-1" vertex="1">
          <mxGeometry x="290" y="1530" width="120" height="80" as="geometry" />
        </mxCell>
        <mxCell id="zXSyF-BzobU6LkQ8Iv29-44" value="Computer&amp;nbsp;&lt;div&gt;Wins&lt;/div&gt;" style="ellipse;whiteSpace=wrap;html=1;" parent="WIyWlLk6GJQsqaUBKTNV-1" vertex="1">
          <mxGeometry y="1540" width="80" height="60" as="geometry" />
        </mxCell>
        <mxCell id="zXSyF-BzobU6LkQ8Iv29-45" value="Tie" style="ellipse;whiteSpace=wrap;html=1;" parent="WIyWlLk6GJQsqaUBKTNV-1" vertex="1">
          <mxGeometry x="130" y="1700" width="120" height="80" as="geometry" />
        </mxCell>
      </root>
    </mxGraphModel>
  </diagram>
</mxfile>
